<mxfile host="Electron" modified="2024-07-07T13:44:43.904Z" agent="Mozilla/5.0 (Windows NT 10.0; Win64; x64) AppleWebKit/537.36 (KHTML, like Gecko) draw.io/24.5.3 Chrome/124.0.6367.207 Electron/30.0.6 Safari/537.36" etag="NIzO28pt4RYg7CR0Bj3_" version="24.5.3" type="device">
  <diagram name="Page-1" id="EPFrAjAk2CS2TEymbjMJ">
    <mxGraphModel dx="1050" dy="621" grid="1" gridSize="10" guides="1" tooltips="1" connect="1" arrows="1" fold="1" page="1" pageScale="1" pageWidth="900" pageHeight="1600" math="0" shadow="0">
      <root>
        <mxCell id="0" />
        <mxCell id="1" parent="0" />
        <mxCell id="7dJJXMs8cyY0ttT-RKsi-23" style="edgeStyle=orthogonalEdgeStyle;rounded=0;orthogonalLoop=1;jettySize=auto;html=1;exitX=1;exitY=0.25;exitDx=0;exitDy=0;entryX=0;entryY=0.25;entryDx=0;entryDy=0;" parent="1" source="7dJJXMs8cyY0ttT-RKsi-2" target="7dJJXMs8cyY0ttT-RKsi-4" edge="1">
          <mxGeometry relative="1" as="geometry" />
        </mxCell>
        <mxCell id="7dJJXMs8cyY0ttT-RKsi-24" value="exponent diff" style="edgeLabel;html=1;align=center;verticalAlign=middle;resizable=0;points=[];" parent="7dJJXMs8cyY0ttT-RKsi-23" vertex="1" connectable="0">
          <mxGeometry x="-0.1538" y="-2" relative="1" as="geometry">
            <mxPoint as="offset" />
          </mxGeometry>
        </mxCell>
        <mxCell id="7dJJXMs8cyY0ttT-RKsi-25" style="edgeStyle=orthogonalEdgeStyle;rounded=0;orthogonalLoop=1;jettySize=auto;html=1;exitX=1;exitY=0.75;exitDx=0;exitDy=0;entryX=0;entryY=0.75;entryDx=0;entryDy=0;" parent="1" source="7dJJXMs8cyY0ttT-RKsi-2" target="7dJJXMs8cyY0ttT-RKsi-4" edge="1">
          <mxGeometry relative="1" as="geometry" />
        </mxCell>
        <mxCell id="7dJJXMs8cyY0ttT-RKsi-26" value="mantissa diff" style="edgeLabel;html=1;align=center;verticalAlign=middle;resizable=0;points=[];" parent="7dJJXMs8cyY0ttT-RKsi-25" vertex="1" connectable="0">
          <mxGeometry x="-0.1599" y="-1" relative="1" as="geometry">
            <mxPoint as="offset" />
          </mxGeometry>
        </mxCell>
        <mxCell id="7dJJXMs8cyY0ttT-RKsi-41" style="edgeStyle=orthogonalEdgeStyle;rounded=0;orthogonalLoop=1;jettySize=auto;html=1;entryX=0.5;entryY=0;entryDx=0;entryDy=0;" parent="1" source="7dJJXMs8cyY0ttT-RKsi-2" target="7dJJXMs8cyY0ttT-RKsi-42" edge="1">
          <mxGeometry relative="1" as="geometry">
            <mxPoint x="315" y="490" as="targetPoint" />
          </mxGeometry>
        </mxCell>
        <mxCell id="7dJJXMs8cyY0ttT-RKsi-2" value="FPU add sub" style="rounded=0;whiteSpace=wrap;html=1;fillColor=#e1d5e7;strokeColor=#9673a6;" parent="1" vertex="1">
          <mxGeometry x="220" y="320" width="190" height="120" as="geometry" />
        </mxCell>
        <mxCell id="7dJJXMs8cyY0ttT-RKsi-35" style="edgeStyle=orthogonalEdgeStyle;rounded=0;orthogonalLoop=1;jettySize=auto;html=1;exitX=0.25;exitY=1;exitDx=0;exitDy=0;entryX=0.5;entryY=0;entryDx=0;entryDy=0;" parent="1" source="7dJJXMs8cyY0ttT-RKsi-4" target="7dJJXMs8cyY0ttT-RKsi-37" edge="1">
          <mxGeometry relative="1" as="geometry">
            <mxPoint x="560.344827586207" y="500" as="targetPoint" />
          </mxGeometry>
        </mxCell>
        <mxCell id="7dJJXMs8cyY0ttT-RKsi-36" style="edgeStyle=orthogonalEdgeStyle;rounded=0;orthogonalLoop=1;jettySize=auto;html=1;exitX=0.75;exitY=1;exitDx=0;exitDy=0;entryX=0.5;entryY=0;entryDx=0;entryDy=0;" parent="1" source="7dJJXMs8cyY0ttT-RKsi-4" target="7dJJXMs8cyY0ttT-RKsi-38" edge="1">
          <mxGeometry relative="1" as="geometry">
            <mxPoint x="620.344827586207" y="500" as="targetPoint" />
          </mxGeometry>
        </mxCell>
        <mxCell id="7dJJXMs8cyY0ttT-RKsi-4" value="Compare" style="rounded=0;whiteSpace=wrap;html=1;fillColor=#e1d5e7;strokeColor=#9673a6;" parent="1" vertex="1">
          <mxGeometry x="530" y="325" width="120" height="110" as="geometry" />
        </mxCell>
        <mxCell id="7dJJXMs8cyY0ttT-RKsi-9" style="edgeStyle=orthogonalEdgeStyle;rounded=0;orthogonalLoop=1;jettySize=auto;html=1;entryX=0.25;entryY=0;entryDx=0;entryDy=0;" parent="1" source="7dJJXMs8cyY0ttT-RKsi-5" target="7dJJXMs8cyY0ttT-RKsi-2" edge="1">
          <mxGeometry relative="1" as="geometry" />
        </mxCell>
        <mxCell id="7dJJXMs8cyY0ttT-RKsi-5" value="" style="shape=trapezoid;perimeter=trapezoidPerimeter;whiteSpace=wrap;html=1;fixedSize=1;rotation=-180;fillColor=#dae8fc;strokeColor=#6c8ebf;" parent="1" vertex="1">
          <mxGeometry x="232" y="260" width="70" height="20" as="geometry" />
        </mxCell>
        <mxCell id="7dJJXMs8cyY0ttT-RKsi-11" value="A" style="text;html=1;align=center;verticalAlign=middle;whiteSpace=wrap;rounded=0;" parent="1" vertex="1">
          <mxGeometry x="240" y="200" width="20" height="30" as="geometry" />
        </mxCell>
        <mxCell id="7dJJXMs8cyY0ttT-RKsi-12" value="B" style="text;html=1;align=center;verticalAlign=middle;whiteSpace=wrap;rounded=0;" parent="1" vertex="1">
          <mxGeometry x="274" y="200" width="20" height="30" as="geometry" />
        </mxCell>
        <mxCell id="7dJJXMs8cyY0ttT-RKsi-15" value="" style="endArrow=none;html=1;rounded=0;entryX=0.75;entryY=1;entryDx=0;entryDy=0;exitX=0.5;exitY=1;exitDx=0;exitDy=0;" parent="1" source="7dJJXMs8cyY0ttT-RKsi-11" target="7dJJXMs8cyY0ttT-RKsi-5" edge="1">
          <mxGeometry width="50" height="50" relative="1" as="geometry">
            <mxPoint x="340" y="380" as="sourcePoint" />
            <mxPoint x="390" y="330" as="targetPoint" />
          </mxGeometry>
        </mxCell>
        <mxCell id="7dJJXMs8cyY0ttT-RKsi-16" value="" style="endArrow=none;html=1;rounded=0;exitX=0.25;exitY=1;exitDx=0;exitDy=0;entryX=0.5;entryY=1;entryDx=0;entryDy=0;" parent="1" source="7dJJXMs8cyY0ttT-RKsi-5" target="7dJJXMs8cyY0ttT-RKsi-12" edge="1">
          <mxGeometry width="50" height="50" relative="1" as="geometry">
            <mxPoint x="340" y="380" as="sourcePoint" />
            <mxPoint x="390" y="330" as="targetPoint" />
          </mxGeometry>
        </mxCell>
        <mxCell id="7dJJXMs8cyY0ttT-RKsi-22" style="edgeStyle=orthogonalEdgeStyle;rounded=0;orthogonalLoop=1;jettySize=auto;html=1;entryX=0.75;entryY=0;entryDx=0;entryDy=0;" parent="1" source="7dJJXMs8cyY0ttT-RKsi-17" target="7dJJXMs8cyY0ttT-RKsi-2" edge="1">
          <mxGeometry relative="1" as="geometry" />
        </mxCell>
        <mxCell id="7dJJXMs8cyY0ttT-RKsi-17" value="" style="shape=trapezoid;perimeter=trapezoidPerimeter;whiteSpace=wrap;html=1;fixedSize=1;rotation=-180;fillColor=#dae8fc;strokeColor=#6c8ebf;" parent="1" vertex="1">
          <mxGeometry x="327" y="260" width="70" height="20" as="geometry" />
        </mxCell>
        <mxCell id="7dJJXMs8cyY0ttT-RKsi-18" value="B" style="text;html=1;align=center;verticalAlign=middle;whiteSpace=wrap;rounded=0;" parent="1" vertex="1">
          <mxGeometry x="335" y="200" width="20" height="30" as="geometry" />
        </mxCell>
        <mxCell id="7dJJXMs8cyY0ttT-RKsi-19" value="A" style="text;html=1;align=center;verticalAlign=middle;whiteSpace=wrap;rounded=0;" parent="1" vertex="1">
          <mxGeometry x="369" y="200" width="20" height="30" as="geometry" />
        </mxCell>
        <mxCell id="7dJJXMs8cyY0ttT-RKsi-20" value="" style="endArrow=none;html=1;rounded=0;entryX=0.75;entryY=1;entryDx=0;entryDy=0;exitX=0.5;exitY=1;exitDx=0;exitDy=0;" parent="1" source="7dJJXMs8cyY0ttT-RKsi-18" target="7dJJXMs8cyY0ttT-RKsi-17" edge="1">
          <mxGeometry width="50" height="50" relative="1" as="geometry">
            <mxPoint x="435" y="380" as="sourcePoint" />
            <mxPoint x="485" y="330" as="targetPoint" />
          </mxGeometry>
        </mxCell>
        <mxCell id="7dJJXMs8cyY0ttT-RKsi-21" value="" style="endArrow=none;html=1;rounded=0;exitX=0.25;exitY=1;exitDx=0;exitDy=0;entryX=0.5;entryY=1;entryDx=0;entryDy=0;" parent="1" source="7dJJXMs8cyY0ttT-RKsi-17" target="7dJJXMs8cyY0ttT-RKsi-19" edge="1">
          <mxGeometry width="50" height="50" relative="1" as="geometry">
            <mxPoint x="435" y="380" as="sourcePoint" />
            <mxPoint x="485" y="330" as="targetPoint" />
          </mxGeometry>
        </mxCell>
        <mxCell id="7dJJXMs8cyY0ttT-RKsi-27" value="" style="endArrow=none;html=1;rounded=0;entryX=1;entryY=0.5;entryDx=0;entryDy=0;exitX=0;exitY=0.5;exitDx=0;exitDy=0;" parent="1" source="7dJJXMs8cyY0ttT-RKsi-5" target="7dJJXMs8cyY0ttT-RKsi-17" edge="1">
          <mxGeometry width="50" height="50" relative="1" as="geometry">
            <mxPoint x="440" y="350" as="sourcePoint" />
            <mxPoint x="490" y="300" as="targetPoint" />
          </mxGeometry>
        </mxCell>
        <mxCell id="7dJJXMs8cyY0ttT-RKsi-28" value="" style="endArrow=none;html=1;rounded=0;entryX=1;entryY=0.5;entryDx=0;entryDy=0;exitX=0;exitY=0.5;exitDx=0;exitDy=0;" parent="1" source="7dJJXMs8cyY0ttT-RKsi-30" target="7dJJXMs8cyY0ttT-RKsi-5" edge="1">
          <mxGeometry width="50" height="50" relative="1" as="geometry">
            <mxPoint x="180" y="270" as="sourcePoint" />
            <mxPoint x="490" y="300" as="targetPoint" />
            <Array as="points">
              <mxPoint x="210" y="150" />
              <mxPoint x="210" y="270" />
            </Array>
          </mxGeometry>
        </mxCell>
        <mxCell id="7dJJXMs8cyY0ttT-RKsi-43" style="edgeStyle=orthogonalEdgeStyle;rounded=0;orthogonalLoop=1;jettySize=auto;html=1;exitX=1;exitY=0.25;exitDx=0;exitDy=0;entryX=0;entryY=0.5;entryDx=0;entryDy=0;" parent="1" source="7dJJXMs8cyY0ttT-RKsi-30" target="7dJJXMs8cyY0ttT-RKsi-40" edge="1">
          <mxGeometry relative="1" as="geometry" />
        </mxCell>
        <mxCell id="7dJJXMs8cyY0ttT-RKsi-30" value="sign and shuffle logic" style="rounded=0;whiteSpace=wrap;html=1;fillColor=#e1d5e7;strokeColor=#9673a6;" parent="1" vertex="1">
          <mxGeometry x="274" y="120" width="190" height="60" as="geometry" />
        </mxCell>
        <mxCell id="7dJJXMs8cyY0ttT-RKsi-37" value="equal" style="text;html=1;align=center;verticalAlign=middle;whiteSpace=wrap;rounded=0;" parent="1" vertex="1">
          <mxGeometry x="542" y="495" width="36" height="25" as="geometry" />
        </mxCell>
        <mxCell id="7dJJXMs8cyY0ttT-RKsi-38" value="greater" style="text;html=1;align=center;verticalAlign=middle;whiteSpace=wrap;rounded=0;" parent="1" vertex="1">
          <mxGeometry x="602" y="495" width="36" height="25" as="geometry" />
        </mxCell>
        <mxCell id="7dJJXMs8cyY0ttT-RKsi-40" value="sign" style="text;html=1;align=center;verticalAlign=middle;whiteSpace=wrap;rounded=0;" parent="1" vertex="1">
          <mxGeometry x="530" y="120" width="40" height="30" as="geometry" />
        </mxCell>
        <mxCell id="7dJJXMs8cyY0ttT-RKsi-42" value="result" style="text;html=1;align=center;verticalAlign=middle;whiteSpace=wrap;rounded=0;" parent="1" vertex="1">
          <mxGeometry x="297" y="495" width="36" height="25" as="geometry" />
        </mxCell>
      </root>
    </mxGraphModel>
  </diagram>
</mxfile>
